# xmcd
# 
# Track frame offsets:
#     150
#     15695
#     32230
#     60857
#     79562
#     111002
#     125612
#     141412
#     166325
#     198867
#     215752
#     232717
#     247190
#     262677
#     279447
# 
# Disc length: 4300
# 
# Revision: 1
# Processed by: cddbd v1.5.2PL0 Copyright (c) Steve Scherf et al.
# Submitted via: fre:ac v1.0.31
# 
DISCID=c710ca0f
DTITLE=0 - Goden Fox Classics
DYEAR=2005
DGENRE=Mix
TTITLE0=Edorado Bennato - Viva la Mama
TTITLE1=Cats - One way Wind
TTITLE2=Jason Donovan - Another Night
TTITLE3=Glass Tiger - Don´t forget me
TTITLE4=M and H Band - Popcorn
TTITLE5=Hank the Knife 6 the Jets - Guitar King
TTITLE6=George Baker Selection - Paloma Blance
TTITLE7=David Hasselhoff - Flying on the Wings of tenderness
TTITLE8=Glass Tiger - Daimond Sun
TTITLE9=Bernie Paul - Lucky
TTITLE10=Les Humphries Singers - Mama Loo
TTITLE11=Ricchie Poveri - Sara perche ti amo
TTITLE12=Talko - The Hustle
TTITLE13=Olsen Brothers - Louis
TTITLE14=Bad Boys Blue Megamix
EXTD=YEAR: 2005
EXTT0=
EXTT1=
EXTT2=
EXTT3=
EXTT4=
EXTT5=
EXTT6=
EXTT7=
EXTT8=
EXTT9=
EXTT10=
EXTT11=
EXTT12=
EXTT13=
EXTT14=
PLAYORDER=
